# xmcd
#
# Track frame offsets: 
#        300
#        25786
#        49328
#        86739
#        103695
#        146942
#        163361
#
# Disc length: 2589 seconds
#
# Revision: 5
# Processed by: cddbd v1.5.2PL0 Copyright (c) Steve Scherf et al.
# Submitted via: ExactAudioCopy v1.0b1
#
DISCID=650a1907
DTITLE=Albert Collins and The Icebreakers - Live In Japan
DYEAR=1984
DGENRE=Texas Blues
TTITLE0=Listen Here!
TTITLE1=Tired Man
TTITLE2=If Trouble Was Money
TTITLE3=Jealous Man
TTITLE4=Stormy Monday
TTITLE5=Skatin'
TTITLE6=All About My Girl
EXTD=Alligator Records YEAR: 1984
EXTT0=Albert Collins and The Heartbreakers
EXTT1=Albert Collins and The Heartbreakers
EXTT2=Albert Collins and The Heartbreakers
EXTT3=Albert Collins and The Heartbreakers
EXTT4=Albert Collins and The Heartbreakers
EXTT5=Albert Collins and The Heartbreakers
EXTT6=Albert Collins and The Heartbreakers
PLAYORDER=
